<?xml version="1.0" encoding="UTF-8" standalone="no"?>
<svg
   xmlns:dc="http://purl.org/dc/elements/1.1/"
   xmlns:cc="http://creativecommons.org/ns#"
   xmlns:rdf="http://www.w3.org/1999/02/22-rdf-syntax-ns#"
   xmlns:svg="http://www.w3.org/2000/svg"
   xmlns="http://www.w3.org/2000/svg"
   viewBox="0 0 426.13 281.41833"
   height="281.41833"
   width="426.13"
   xml:space="preserve"
   id="svg2"
   version="1.1"><metadata
     id="metadata8"><rdf:RDF><cc:Work
         rdf:about=""><dc:format>image/svg+xml</dc:format><dc:type
           rdf:resource="http://purl.org/dc/dcmitype/StillImage" /></cc:Work></rdf:RDF></metadata><defs
     id="defs6"><clipPath
       id="clipPath114"
       clipPathUnits="userSpaceOnUse"><path
         id="path112"
         d="m 50.1375,37.54375 h 262.26 v 166.32 h -262.26 z" /></clipPath><clipPath
       id="clipPath124"
       clipPathUnits="userSpaceOnUse"><path
         id="path122"
         d="m 50.1375,37.54375 h 262.26 v 166.32 h -262.26 z" /></clipPath><clipPath
       id="clipPath134"
       clipPathUnits="userSpaceOnUse"><path
         id="path132"
         d="m 50.1375,37.54375 h 262.26 v 166.32 h -262.26 z" /></clipPath><clipPath
       id="clipPath144"
       clipPathUnits="userSpaceOnUse"><path
         id="path142"
         d="m 50.1375,37.54375 h 262.26 v 166.32 h -262.26 z" /></clipPath></defs><g
     transform="matrix(1.3333333,0,0,-1.3333333,0,281.41833)"
     id="g10"><path
       id="path12"
       style="fill:#ffffff;fill-opacity:1;fill-rule:nonzero;stroke:none"
       d="M 0,0 H 319.5975 V 211.06375 H 0 Z" /><path
       id="path14"
       style="fill:#ffffff;fill-opacity:1;fill-rule:nonzero;stroke:none"
       d="m 50.1375,37.54375 h 262.26 v 166.32 h -262.26 z" /><path
       id="path16"
       style="fill:#000000;fill-opacity:1;fill-rule:nonzero;stroke:#000000;stroke-width:0.8;stroke-linecap:butt;stroke-linejoin:round;stroke-miterlimit:10;stroke-dasharray:none;stroke-opacity:1"
       d="m 53.837092,37.54375 v -3.5" /><text
       id="text20"
       style="font-variant:normal;font-weight:normal;font-size:10px;font-family:'DejaVu Sans';-inkscape-font-specification:DejaVuSans;writing-mode:lr-tb;fill:#000000;fill-opacity:1;fill-rule:nonzero;stroke:none"
       transform="matrix(1,0,0,-1,50.657405,22.95)"><tspan
         id="tspan18"
         y="0"
         x="0">0</tspan></text><path
       id="path22"
       style="fill:#000000;fill-opacity:1;fill-rule:nonzero;stroke:#000000;stroke-width:0.8;stroke-linecap:butt;stroke-linejoin:round;stroke-miterlimit:10;stroke-dasharray:none;stroke-opacity:1"
       d="m 94.943676,37.54375 v -3.5" /><text
       id="text26"
       style="font-variant:normal;font-weight:normal;font-size:10px;font-family:'DejaVu Sans';-inkscape-font-specification:DejaVuSans;writing-mode:lr-tb;fill:#000000;fill-opacity:1;fill-rule:nonzero;stroke:none"
       transform="matrix(1,0,0,-1,91.763988,22.95)"><tspan
         id="tspan24"
         y="0"
         x="0">5</tspan></text><path
       id="path28"
       style="fill:#000000;fill-opacity:1;fill-rule:nonzero;stroke:#000000;stroke-width:0.8;stroke-linecap:butt;stroke-linejoin:round;stroke-miterlimit:10;stroke-dasharray:none;stroke-opacity:1"
       d="m 136.05026,37.54375 v -3.5" /><text
       id="text32"
       style="font-variant:normal;font-weight:normal;font-size:10px;font-family:'DejaVu Sans';-inkscape-font-specification:DejaVuSans;writing-mode:lr-tb;fill:#000000;fill-opacity:1;fill-rule:nonzero;stroke:none"
       transform="matrix(1,0,0,-1,129.69088,22.95)"><tspan
         id="tspan30"
         y="0"
         x="0 6.3600001">10</tspan></text><path
       id="path34"
       style="fill:#000000;fill-opacity:1;fill-rule:nonzero;stroke:#000000;stroke-width:0.8;stroke-linecap:butt;stroke-linejoin:round;stroke-miterlimit:10;stroke-dasharray:none;stroke-opacity:1"
       d="m 177.15684,37.54375 v -3.5" /><text
       id="text38"
       style="font-variant:normal;font-weight:normal;font-size:10px;font-family:'DejaVu Sans';-inkscape-font-specification:DejaVuSans;writing-mode:lr-tb;fill:#000000;fill-opacity:1;fill-rule:nonzero;stroke:none"
       transform="matrix(1,0,0,-1,170.79747,22.95)"><tspan
         id="tspan36"
         y="0"
         x="0 6.3600001">15</tspan></text><path
       id="path40"
       style="fill:#000000;fill-opacity:1;fill-rule:nonzero;stroke:#000000;stroke-width:0.8;stroke-linecap:butt;stroke-linejoin:round;stroke-miterlimit:10;stroke-dasharray:none;stroke-opacity:1"
       d="m 218.26342,37.54375 v -3.5" /><text
       id="text44"
       style="font-variant:normal;font-weight:normal;font-size:10px;font-family:'DejaVu Sans';-inkscape-font-specification:DejaVuSans;writing-mode:lr-tb;fill:#000000;fill-opacity:1;fill-rule:nonzero;stroke:none"
       transform="matrix(1,0,0,-1,211.90405,22.95)"><tspan
         id="tspan42"
         y="0"
         x="0 6.3600001">20</tspan></text><path
       id="path46"
       style="fill:#000000;fill-opacity:1;fill-rule:nonzero;stroke:#000000;stroke-width:0.8;stroke-linecap:butt;stroke-linejoin:round;stroke-miterlimit:10;stroke-dasharray:none;stroke-opacity:1"
       d="m 259.37001,37.54375 v -3.5" /><text
       id="text50"
       style="font-variant:normal;font-weight:normal;font-size:10px;font-family:'DejaVu Sans';-inkscape-font-specification:DejaVuSans;writing-mode:lr-tb;fill:#000000;fill-opacity:1;fill-rule:nonzero;stroke:none"
       transform="matrix(1,0,0,-1,253.01063,22.95)"><tspan
         id="tspan48"
         y="0"
         x="0 6.3600001">25</tspan></text><path
       id="path52"
       style="fill:#000000;fill-opacity:1;fill-rule:nonzero;stroke:#000000;stroke-width:0.8;stroke-linecap:butt;stroke-linejoin:round;stroke-miterlimit:10;stroke-dasharray:none;stroke-opacity:1"
       d="m 300.47659,37.54375 v -3.5" /><text
       id="text56"
       style="font-variant:normal;font-weight:normal;font-size:10px;font-family:'DejaVu Sans';-inkscape-font-specification:DejaVuSans;writing-mode:lr-tb;fill:#000000;fill-opacity:1;fill-rule:nonzero;stroke:none"
       transform="matrix(1,0,0,-1,294.11722,22.95)"><tspan
         id="tspan54"
         y="0"
         x="0 6.3600001">30</tspan></text><text
       id="text60"
       style="font-variant:normal;font-weight:normal;font-size:10px;font-family:'DejaVu Sans';-inkscape-font-specification:DejaVuSans;writing-mode:lr-tb;fill:#000000;fill-opacity:1;fill-rule:nonzero;stroke:none"
       transform="matrix(1,0,0,-1,125.60344,9.278125)"><tspan
         id="tspan58"
         y="0"
         x="0 6.98 13.1 22.84 32.580002 38.919998 45.259998 48.040001 53.540001 59.669998 63.59 66.370003 72.489998 78.830002 82.010002 86.120003 92.239998 98.580002 104.92">Communication round</tspan></text><path
       id="path62"
       style="fill:#000000;fill-opacity:1;fill-rule:nonzero;stroke:#000000;stroke-width:0.8;stroke-linecap:butt;stroke-linejoin:round;stroke-miterlimit:10;stroke-dasharray:none;stroke-opacity:1"
       d="m 50.1375,59.10375 h -3.5" /><text
       id="text66"
       style="font-variant:normal;font-weight:normal;font-size:10px;font-family:'DejaVu Sans';-inkscape-font-specification:DejaVuSans;writing-mode:lr-tb;fill:#000000;fill-opacity:1;fill-rule:nonzero;stroke:none"
       transform="matrix(1,0,0,-1,20.871875,55.306875)"><tspan
         id="tspan64"
         y="0"
         x="0 6.3600001 12.72 15.9">72.5</tspan></text><path
       id="path68"
       style="fill:#000000;fill-opacity:1;fill-rule:nonzero;stroke:#000000;stroke-width:0.8;stroke-linecap:butt;stroke-linejoin:round;stroke-miterlimit:10;stroke-dasharray:none;stroke-opacity:1"
       d="m 50.1375,82.437083 h -3.5" /><text
       id="text72"
       style="font-variant:normal;font-weight:normal;font-size:10px;font-family:'DejaVu Sans';-inkscape-font-specification:DejaVuSans;writing-mode:lr-tb;fill:#000000;fill-opacity:1;fill-rule:nonzero;stroke:none"
       transform="matrix(1,0,0,-1,20.871875,78.640208)"><tspan
         id="tspan70"
         y="0"
         x="0 6.3600001 12.72 15.9">75.0</tspan></text><path
       id="path74"
       style="fill:#000000;fill-opacity:1;fill-rule:nonzero;stroke:#000000;stroke-width:0.8;stroke-linecap:butt;stroke-linejoin:round;stroke-miterlimit:10;stroke-dasharray:none;stroke-opacity:1"
       d="m 50.1375,105.77042 h -3.5" /><text
       id="text78"
       style="font-variant:normal;font-weight:normal;font-size:10px;font-family:'DejaVu Sans';-inkscape-font-specification:DejaVuSans;writing-mode:lr-tb;fill:#000000;fill-opacity:1;fill-rule:nonzero;stroke:none"
       transform="matrix(1,0,0,-1,20.871875,101.97354)"><tspan
         id="tspan76"
         y="0"
         x="0 6.3600001 12.72 15.9">77.5</tspan></text><path
       id="path80"
       style="fill:#000000;fill-opacity:1;fill-rule:nonzero;stroke:#000000;stroke-width:0.8;stroke-linecap:butt;stroke-linejoin:round;stroke-miterlimit:10;stroke-dasharray:none;stroke-opacity:1"
       d="m 50.1375,129.10375 h -3.5" /><text
       id="text84"
       style="font-variant:normal;font-weight:normal;font-size:10px;font-family:'DejaVu Sans';-inkscape-font-specification:DejaVuSans;writing-mode:lr-tb;fill:#000000;fill-opacity:1;fill-rule:nonzero;stroke:none"
       transform="matrix(1,0,0,-1,20.871875,125.30687)"><tspan
         id="tspan82"
         y="0"
         x="0 6.3600001 12.72 15.9">80.0</tspan></text><path
       id="path86"
       style="fill:#000000;fill-opacity:1;fill-rule:nonzero;stroke:#000000;stroke-width:0.8;stroke-linecap:butt;stroke-linejoin:round;stroke-miterlimit:10;stroke-dasharray:none;stroke-opacity:1"
       d="m 50.1375,152.43708 h -3.5" /><text
       id="text90"
       style="font-variant:normal;font-weight:normal;font-size:10px;font-family:'DejaVu Sans';-inkscape-font-specification:DejaVuSans;writing-mode:lr-tb;fill:#000000;fill-opacity:1;fill-rule:nonzero;stroke:none"
       transform="matrix(1,0,0,-1,20.871875,148.64021)"><tspan
         id="tspan88"
         y="0"
         x="0 6.3600001 12.72 15.9">82.5</tspan></text><path
       id="path92"
       style="fill:#000000;fill-opacity:1;fill-rule:nonzero;stroke:#000000;stroke-width:0.8;stroke-linecap:butt;stroke-linejoin:round;stroke-miterlimit:10;stroke-dasharray:none;stroke-opacity:1"
       d="m 50.1375,175.77042 h -3.5" /><text
       id="text96"
       style="font-variant:normal;font-weight:normal;font-size:10px;font-family:'DejaVu Sans';-inkscape-font-specification:DejaVuSans;writing-mode:lr-tb;fill:#000000;fill-opacity:1;fill-rule:nonzero;stroke:none"
       transform="matrix(1,0,0,-1,20.871875,171.97354)"><tspan
         id="tspan94"
         y="0"
         x="0 6.3600001 12.72 15.9">85.0</tspan></text><path
       id="path98"
       style="fill:#000000;fill-opacity:1;fill-rule:nonzero;stroke:#000000;stroke-width:0.8;stroke-linecap:butt;stroke-linejoin:round;stroke-miterlimit:10;stroke-dasharray:none;stroke-opacity:1"
       d="m 50.1375,199.10375 h -3.5" /><text
       id="text102"
       style="font-variant:normal;font-weight:normal;font-size:10px;font-family:'DejaVu Sans';-inkscape-font-specification:DejaVuSans;writing-mode:lr-tb;fill:#000000;fill-opacity:1;fill-rule:nonzero;stroke:none"
       transform="matrix(1,0,0,-1,20.871875,195.30687)"><tspan
         id="tspan100"
         y="0"
         x="0 6.3600001 12.72 15.9">87.5</tspan></text><text
       id="text106"
       style="font-variant:normal;font-weight:normal;font-size:10px;font-family:'DejaVu Sans';-inkscape-font-specification:DejaVuSans;writing-mode:lr-tb;fill:#000000;fill-opacity:1;fill-rule:nonzero;stroke:none"
       transform="matrix(0,1,1,0,14.79375,97.781875)"><tspan
         id="tspan104"
         y="0"
         x="0 6.8400002 12.34 17.84 24.18 28.290001 34.419998 39.919998">Accuracy</tspan></text><g
       id="g108"><g
         clip-path="url(#clipPath114)"
         id="g110"><path
           id="path116"
           style="fill:none;stroke:#1f77b4;stroke-width:1.5;stroke-linecap:square;stroke-linejoin:round;stroke-miterlimit:10;stroke-dasharray:none;stroke-opacity:1"
           d="m 62.058409,45.10375 8.221317,66.26667 8.221316,9.33333 8.221317,7.46667 8.221317,5.6 8.221314,5.6 h 8.22132 l 8.22132,0.93333 8.22131,-1.86667 8.22132,1.86667 8.22131,1.86667 8.22132,0.93333 8.22132,2.8 8.22131,-0.93333 8.22132,-0.93334 8.22132,0.93334 8.22131,1.86666 h 8.22132 8.22132 l 8.22131,1.86667 h 8.22132 l 8.22132,-0.93333 8.22131,-0.93334 h 8.22132 l 8.22132,0.93334 8.22131,0.93333 h 8.22132 l 8.22132,1.86667 8.22131,0.93333 8.22132,-3.73333" /></g></g><g
       id="g118"><g
         clip-path="url(#clipPath124)"
         id="g120"><path
           id="path126"
           style="fill:none;stroke:#ff7f0e;stroke-width:1.5;stroke-linecap:square;stroke-linejoin:round;stroke-miterlimit:10;stroke-dasharray:none;stroke-opacity:1"
           d="m 62.058409,65.637083 8.221317,63.466667 8.221316,14 8.221317,6.53333 8.221317,-4.66666 8.221314,8.4 8.22132,0.93333 8.22132,3.73333 8.22131,-1.86666 8.22132,2.8 8.22131,-1.86667 8.22132,1.86667 8.22132,-1.86667 8.22131,1.86667 8.22132,0.93333 8.22132,0.93333 8.22131,-1.86666 8.22132,1.86666 8.22132,-0.93333 8.22131,0.93333 8.22132,-0.93333 8.22132,0.93333 h 8.22131 l 8.22132,0.93334 8.22132,-0.93334 8.22131,-0.93333 8.22132,0.93333 8.22132,-2.8 8.22131,3.73334 8.22132,-0.93334" /></g></g><g
       id="g128"><g
         clip-path="url(#clipPath134)"
         id="g130"><path
           id="path136"
           style="fill:none;stroke:#2ca02c;stroke-width:1.5;stroke-linecap:square;stroke-linejoin:round;stroke-miterlimit:10;stroke-dasharray:none;stroke-opacity:1"
           d="m 62.058409,126.30375 8.221317,55.06667 8.221316,1.86666 8.221317,1.86667 8.221317,5.6 8.221314,-1.86667 8.22132,1.86667 8.22132,0.93333 8.22131,0.93334 h 8.22132 8.22131 l 8.22132,1.86666 8.22132,-0.93333 8.22131,0.93333 8.22132,1.86667 8.22132,-2.8 8.22131,1.86667 h 8.22132 l 8.22132,-1.86667 8.22131,0.93333 8.22132,0.93334 8.22132,-0.93334 h 8.22131 l 8.22132,-0.93333 8.22132,1.86667 8.22131,-0.93334 8.22132,-0.93333 8.22132,0.93333 8.22131,-0.93333 8.22132,0.93333" /></g></g><g
       id="g138"><g
         clip-path="url(#clipPath144)"
         id="g140"><path
           id="path146"
           style="fill:none;stroke:#d62728;stroke-width:1.5;stroke-linecap:square;stroke-linejoin:round;stroke-miterlimit:10;stroke-dasharray:none;stroke-opacity:1"
           d="m 62.058409,50.70375 8.221317,72.8 8.221316,30.8 8.221317,0.93333 8.221317,8.4 8.221314,1.86667 8.22132,1.86667 8.22132,4.66666 8.22131,0.93334 8.22132,2.8 h 8.22131 l 8.22132,-1.86667 8.22132,1.86667 8.22131,2.8 8.22132,-1.86667 h 8.22132 l 8.22131,2.8 8.22132,-0.93333 8.22132,2.8 8.22131,-0.93334 8.22132,0.93334 h 8.22132 8.22131 l 8.22132,1.86666 8.22132,-4.66666 8.22131,4.66666 8.22132,0.93334 h 8.22132 l 8.22131,-0.93334 h 8.22132" /></g></g><g
       id="g148"><path
         id="path150"
         style="fill:none;stroke:#000000;stroke-width:0.8;stroke-linecap:square;stroke-linejoin:miter;stroke-miterlimit:10;stroke-dasharray:none;stroke-opacity:1"
         d="m 50.1375,37.54375 v 166.32" /><path
         id="path152"
         style="fill:none;stroke:#000000;stroke-width:0.8;stroke-linecap:square;stroke-linejoin:miter;stroke-miterlimit:10;stroke-dasharray:none;stroke-opacity:1"
         d="m 312.3975,37.54375 v 166.32" /><path
         id="path154"
         style="fill:none;stroke:#000000;stroke-width:0.8;stroke-linecap:square;stroke-linejoin:miter;stroke-miterlimit:10;stroke-dasharray:none;stroke-opacity:1"
         d="m 50.1375,37.54375 h 262.26" /><path
         id="path156"
         style="fill:none;stroke:#000000;stroke-width:0.8;stroke-linecap:square;stroke-linejoin:miter;stroke-miterlimit:10;stroke-dasharray:none;stroke-opacity:1"
         d="m 50.1375,203.86375 h 262.26" /><path
         id="path158"
         style="fill:#ffffff;fill-opacity:0.8;fill-rule:nonzero;stroke:#cccccc;stroke-width:1;stroke-linecap:butt;stroke-linejoin:miter;stroke-miterlimit:10;stroke-dasharray:none;stroke-opacity:0.8"
         d="m 222.56937,42.54375 h 82.82813 c 1.33333,0 2,0.666667 2,2 v 57.6875 c 0,1.33333 -0.66667,2 -2,2 h -82.82813 c -1.33333,0 -2,-0.66667 -2,-2 v -57.6875 c 0,-1.333333 0.66667,-2 2,-2 z" /><path
         id="path160"
         style="fill:none;stroke:#1f77b4;stroke-width:1.5;stroke-linecap:square;stroke-linejoin:round;stroke-miterlimit:10;stroke-dasharray:none;stroke-opacity:1"
         d="m 224.56937,96.1375 h 20" /><text
         id="text164"
         style="font-variant:normal;font-weight:normal;font-size:10px;font-family:'DejaVu Sans';-inkscape-font-specification:DejaVuSans;writing-mode:lr-tb;fill:#000000;fill-opacity:1;fill-rule:nonzero;stroke:none"
         transform="matrix(1,0,0,-1,252.56937,92.6375)"><tspan
           id="tspan162"
           y="0"
           x="0 2.95 11.58 19.280001">IMDB</tspan></text><path
         id="path166"
         style="fill:none;stroke:#ff7f0e;stroke-width:1.5;stroke-linecap:square;stroke-linejoin:round;stroke-miterlimit:10;stroke-dasharray:none;stroke-opacity:1"
         d="m 224.56937,81.465625 h 20" /><text
         id="text170"
         style="font-variant:normal;font-weight:normal;font-size:10px;font-family:'DejaVu Sans';-inkscape-font-specification:DejaVuSans;writing-mode:lr-tb;fill:#000000;fill-opacity:1;fill-rule:nonzero;stroke:none"
         transform="matrix(1,0,0,-1,252.56937,77.965625)"><tspan
           id="tspan168"
           y="0"
           x="0 6.8400002 16.58 22.709999 27.959999 34.080002">Amazon</tspan></text><path
         id="path172"
         style="fill:none;stroke:#2ca02c;stroke-width:1.5;stroke-linecap:square;stroke-linejoin:round;stroke-miterlimit:10;stroke-dasharray:none;stroke-opacity:1"
         d="m 224.56937,66.79375 h 20" /><text
         id="text176"
         style="font-variant:normal;font-weight:normal;font-size:10px;font-family:'DejaVu Sans';-inkscape-font-specification:DejaVuSans;writing-mode:lr-tb;fill:#000000;fill-opacity:1;fill-rule:nonzero;stroke:none"
         transform="matrix(1,0,0,-1,252.56937,63.29375)"><tspan
           id="tspan174"
           y="0"
           x="0 6.98 13.1 22.84 29.190001 31.969999 38.310001 44.459999">Combined</tspan></text><path
         id="path178"
         style="fill:none;stroke:#d62728;stroke-width:1.5;stroke-linecap:square;stroke-linejoin:round;stroke-miterlimit:10;stroke-dasharray:none;stroke-opacity:1"
         d="m 224.56937,52.121875 h 20" /><text
         id="text182"
         style="font-variant:normal;font-weight:normal;font-size:10px;font-family:'DejaVu Sans';-inkscape-font-specification:DejaVuSans;writing-mode:lr-tb;fill:#000000;fill-opacity:1;fill-rule:nonzero;stroke:none"
         transform="matrix(1,0,0,-1,252.56937,48.621875)"><tspan
           id="tspan180"
           y="0"
           x="0 5.75 11.9 18.25 25.09 31.01">FedAvg</tspan></text></g></g></svg>
